<svg width="375" height="812" viewBox="0 0 375 812" fill="none" xmlns="http://www.w3.org/2000/svg">
<g opacity="0.07">
<rect x="292.906" y="-117.421" width="123.866" height="123.866" rx="16" transform="rotate(10.8478 292.906 -117.421)" fill="#0350BB"/>
<rect x="191.371" y="412.443" width="123.866" height="123.866" rx="16" transform="rotate(10.8478 191.371 412.443)" fill="#0350BB"/>
<rect x="242.139" y="147.511" width="123.866" height="123.866" rx="16" transform="rotate(10.8478 242.139 147.511)" fill="#0350BB"/>
<rect x="140.603" y="677.375" width="123.866" height="123.866" rx="16" transform="rotate(10.8478 140.603 677.375)" fill="#0350BB"/>
<rect x="-73.5613" y="361.675" width="123.866" height="123.866" rx="16" transform="rotate(10.8478 -73.5613 361.675)" fill="#0350BB"/>
<rect x="-22.7935" y="96.743" width="123.866" height="123.866" rx="16" transform="rotate(10.8478 -22.7935 96.743)" fill="#0350BB"/>
<rect x="267.523" y="15.0447" width="123.866" height="123.866" rx="16" transform="rotate(10.8478 267.523 15.0447)" fill="#0350BB"/>
<rect x="165.987" y="544.909" width="123.866" height="123.866" rx="16" transform="rotate(10.8478 165.987 544.909)" fill="#0350BB"/>
<rect x="216.755" y="279.977" width="123.866" height="123.866" rx="16" transform="rotate(10.8478 216.755 279.977)" fill="#0350BB"/>
<rect x="115.219" y="809.841" width="123.866" height="123.866" rx="16" transform="rotate(10.8478 115.219 809.841)" fill="#0350BB"/>
<rect x="2.59033" y="-35.7231" width="123.866" height="123.866" rx="16" transform="rotate(10.8478 2.59033 -35.7231)" fill="#0350BB"/>
<rect x="-98.9451" y="494.141" width="123.866" height="123.866" rx="16" transform="rotate(10.8478 -98.9451 494.141)" fill="#0350BB"/>
<rect x="-48.1774" y="229.209" width="123.866" height="123.866" rx="16" transform="rotate(10.8478 -48.1774 229.209)" fill="#0350BB"/>
<rect x="323.837" y="437.827" width="123.866" height="123.866" rx="16" transform="rotate(10.8478 323.837 437.827)" fill="#0350BB"/>
<rect x="374.605" y="172.895" width="123.866" height="123.866" rx="16" transform="rotate(10.8478 374.605 172.895)" fill="#0350BB"/>
<rect x="273.069" y="702.759" width="123.866" height="123.866" rx="16" transform="rotate(10.8478 273.069 702.759)" fill="#0350BB"/>
<rect x="160.44" y="-142.805" width="123.866" height="123.866" rx="16" transform="rotate(10.8478 160.44 -142.805)" fill="#0350BB"/>
<rect x="58.9049" y="387.059" width="123.866" height="123.866" rx="16" transform="rotate(10.8478 58.9049 387.059)" fill="#0350BB"/>
<rect x="109.673" y="122.127" width="123.866" height="123.866" rx="16" transform="rotate(10.8478 109.673 122.127)" fill="#0350BB"/>
<rect x="8.13708" y="651.991" width="123.866" height="123.866" rx="16" transform="rotate(10.8478 8.13708 651.991)" fill="#0350BB"/>
<rect x="298.453" y="570.293" width="123.866" height="123.866" rx="16" transform="rotate(10.8478 298.453 570.293)" fill="#0350BB"/>
<rect x="349.221" y="305.361" width="123.866" height="123.866" rx="16" transform="rotate(10.8478 349.221 305.361)" fill="#0350BB"/>
<rect x="135.057" y="-10.3392" width="123.866" height="123.866" rx="16" transform="rotate(10.8478 135.057 -10.3392)" fill="#0350BB"/>
<rect x="33.521" y="519.525" width="123.866" height="123.866" rx="16" transform="rotate(10.8478 33.521 519.525)" fill="#0350BB"/>
<rect x="84.2887" y="254.593" width="123.866" height="123.866" rx="16" transform="rotate(10.8478 84.2887 254.593)" fill="#0350BB"/>
<rect x="-17.2467" y="784.457" width="123.866" height="123.866" rx="16" transform="rotate(10.8478 -17.2467 784.457)" fill="#0350BB"/>
</g>
</svg>
